<mxfile host="app.diagrams.net" modified="2024-03-22T23:00:15.821Z" agent="Mozilla/5.0 (Macintosh; Intel Mac OS X 10_15_7) AppleWebKit/537.36 (KHTML, like Gecko) Chrome/123.0.0.0 Safari/537.36" version="24.0.8" etag="3YNtvMJ5XbCwi6ZInWnS" type="github">
  <diagram name="PÃ¡gina-1" id="DTjd4vcN1KneOlNt1oJk">
    <mxGraphModel>
      <root>
        <mxCell id="0" />
        <mxCell id="1" parent="0" />
      </root>
    </mxGraphModel>
  </diagram>
</mxfile>
